HIERARCHY
ROOT root
{
	OFFSET	0	13.1	24.9
	CHANNELS 6  Xposition Yposition Zposition Xrotation Yrotation Zrotation
	JOINT spine_1
	{
		OFFSET	0	9.99999	0
		CHANNELS 3  Xrotation Yrotation Zrotation
		JOINT spine_2
		{
			OFFSET	0	112	-10
			CHANNELS 3  Xrotation Yrotation Zrotation
			JOINT spine_3
			{
				OFFSET	0	206.5	19.3
				CHANNELS 3  Xrotation Yrotation Zrotation
				JOINT spine_4
				{
					OFFSET	0	110.4	14.6
					CHANNELS 3  Xrotation Yrotation Zrotation
					JOINT neck_1
					{
						OFFSET	0	71.8	-50.3
						CHANNELS 3  Xrotation Yrotation Zrotation
						JOINT neck_2
						{
							OFFSET	0	86.2	-25.8
							CHANNELS 3  Xrotation Yrotation Zrotation
							JOINT head_ee
							{
								OFFSET	0	179.8	-8.7
								CHANNELS 3  Xrotation Yrotation Zrotation
								End Site
								{
									OFFSET	1	0	0
								}
							}
						}
					}
					JOINT left_clavicle
					{
						OFFSET	-43.2	22.4	-70.8
						CHANNELS 3  Xrotation Yrotation Zrotation
						JOINT left_shoulder
						{
							OFFSET	-93.9	-5.79999	48.7
							CHANNELS 3  Xrotation Yrotation Zrotation
							JOINT left_elbow
							{
								OFFSET	-291.4	-30.8	15.2
								CHANNELS 3  Xrotation Yrotation Zrotation
								JOINT left_lowarm_twist
								{
									OFFSET	-110.7	-3.89999	13.6
									CHANNELS 3  Xrotation Yrotation Zrotation
									JOINT left_hand
									{
										OFFSET	-110.7	-3.89999	13.6
										CHANNELS 3  Xrotation Yrotation Zrotation
										JOINT left_ee
										{
											OFFSET	-80.8	-5.10001	12.1
											CHANNELS 3  Xrotation Yrotation Zrotation
											End Site
											{
												OFFSET	1	0	0
											}
										}
									}
								}
							}
						}
					}
					JOINT right_clavicle
					{
						OFFSET	43.2	22.4	-70.8
						CHANNELS 3  Xrotation Yrotation Zrotation
						JOINT right_shoulder
						{
							OFFSET	93.9	-5.79999	48.7
							CHANNELS 3  Xrotation Yrotation Zrotation
							JOINT right_elbow
							{
								OFFSET	291.4	-30.8	15.2
								CHANNELS 3  Xrotation Yrotation Zrotation
								JOINT right_lowarm_twist
								{
									OFFSET	110.7	-3.89999	13.6
									CHANNELS 3  Xrotation Yrotation Zrotation
									JOINT right_hand
									{
										OFFSET	110.7	-3.89999	13.6
										CHANNELS 3  Xrotation Yrotation Zrotation
										JOINT right_ee
										{
											OFFSET	80.8	-5.10001	12.1
											CHANNELS 3  Xrotation Yrotation Zrotation
											End Site
											{
												OFFSET	1	0	0
											}
										}
									}
								}
							}
						}
					}
				}
			}
		}
	}
	JOINT left_hip
	{
		OFFSET	-82.8	-127.5	0.300001
		CHANNELS 3  Xrotation Yrotation Zrotation
		JOINT left_knee
		{
			OFFSET	-28.2	-396.7	2.2
			CHANNELS 3  Xrotation Yrotation Zrotation
			JOINT left_ankle
			{
				OFFSET	-11.7	-411.3	35.4
				CHANNELS 3  Xrotation Yrotation Zrotation
				JOINT left_toes
				{
					OFFSET	0	-60	-88.6
					CHANNELS 3  Xrotation Yrotation Zrotation
					JOINT left_foot_ee
					{
						OFFSET	-22.5	-16.5	-42.2
						CHANNELS 3  Xrotation Yrotation Zrotation
						End Site
						{
							OFFSET	1	0	0
						}
					}
				}
			}
		}
	}
	JOINT right_hip
	{
		OFFSET	82.8	-127.5	0.300001
		CHANNELS 3  Xrotation Yrotation Zrotation
		JOINT right_knee
		{
			OFFSET	28.2	-396.7	2.2
			CHANNELS 3  Xrotation Yrotation Zrotation
			JOINT right_ankle
			{
				OFFSET	11.7	-411.3	35.4
				CHANNELS 3  Xrotation Yrotation Zrotation
				JOINT right_toes
				{
					OFFSET	0	-60	-88.6
					CHANNELS 3  Xrotation Yrotation Zrotation
					JOINT right_foot_ee
					{
						OFFSET	22.5	-16.5	-42.2
						CHANNELS 3  Xrotation Yrotation Zrotation
						End Site
						{
							OFFSET	1	0	0
						}
					}
				}
			}
		}
	}
}
MOTION
Frames: 16
Frame Time: 0.02
1488.07 759.034 -1487.96 -1.04596 72.2843 2.41578 0.252981 -0.23435 2.24112 0.255696 -0.376448 2.22168 0.241727 -0.8266 2.09631 0.235922 -0.485239 2.20049 -10.3374 11.7741 -2.5754 -10.5271 23.9162 0.567405 -0.0 0.0 -0.0 2.35024 11.1458 5.30736 -7.43707 -30.0125 43.4322 1.59851 -38.3712 0.55624 -85.153 -8.47104 5.1808 0.549739 5.94686 6.08976 -0.0 0.0 -0.0 10.6046 23.2592 -20.4945 -19.3908 17.0348 -65.3067 0.683623 18.7086 -0.112614 40.2973 0.364818 5.03016 0.930829 -4.46911 -8.02431 0.0 0.0 0.0 3.79907 -7.74116 0.740216 -6.71355 0.217631 1.00676 8.41746 25.3273 -1.26006 1.86446 -0.0 -0.0 -0.0 0.0 -0.0 27.8282 12.941 -7.57958 -46.5871 0.938093 -6.89459 14.4796 -25.0225 2.12165 -9.68998 0.0 0.0 0.0 0.0 0.0 
1482.34 766.465 -1483.09 -6.69164 73.1622 8.20629 0.355854 -0.259256 2.10977 0.358245 -0.392951 2.08901 0.344379 -0.811838 1.96456 0.339329 -0.491455 2.06807 -10.3285 11.577 -3.01735 -10.5074 23.8376 0.0815486 -0.0 0.0 -0.0 2.33363 10.2191 5.22116 -5.53855 -31.4874 42.8341 1.7168 -40.3761 0.631292 -85.2209 -8.47952 5.1791 0.410712 7.48074 5.79027 -0.0 0.0 -0.0 10.3008 23.3321 -19.804 -19.6278 16.4441 -65.6595 0.577778 15.972 -0.0810582 40.474 0.374147 5.05074 0.618282 -7.2307 -7.049 0.0 0.0 0.0 1.21697 -7.94221 0.191431 5.03959 -0.240088 -0.735662 1.56227 25.4437 -0.238274 -1.04862 0.0 0.0 -0.0 0.0 -0.0 31.7621 11.3264 -6.73533 -45.0527 0.819098 -6.69065 14.5372 -24.6988 2.12592 -10.109 0.0 0.0 0.0 0.0 0.0 
1472.59 765.283 -1481.57 -7.37919 73.2038 9.03309 0.422956 -0.0868569 1.90849 0.424958 -0.208101 1.8991 0.418556 -0.589573 1.81725 0.414069 -0.295227 1.88753 -10.6864 11.3161 -3.19901 -10.8782 23.4766 -0.0879397 -0.0 0.0 -0.0 2.36726 9.53266 5.23582 -3.21895 -32.7989 42.4001 1.80502 -41.7976 0.689275 -85.068 -8.46043 5.18291 0.305242 8.67662 5.58069 -0.0 0.0 -0.0 10.1059 23.2846 -19.3706 -20.6849 15.9284 -66.1646 0.505343 14.0544 -0.062292 40.6206 0.381937 5.0678 0.369009 -9.64966 -6.3793 0.0 0.0 0.0 -0.486979 -7.78678 1.07405 8.03158 -0.412989 -1.16168 -2.47199 25.4396 0.38026 -3.08645 0.0 0.0 -0.0 0.0 -0.0 34.3754 9.58508 -7.44373 -40.8445 0.521368 -6.11609 10.5195 -24.7049 1.55941 -11.5229 0.0 0.0 0.0 0.0 0.0 
1451.31 761.661 -1482.63 -7.20603 72.7287 8.84751 0.464258 0.027135 1.75519 0.465968 -0.0845898 1.75336 0.463874 -0.437607 1.7 0.459878 -0.163676 1.74775 -9.38765 11.0112 -3.45635 -9.48165 23.0371 -0.704054 -0.0 0.0 -0.0 2.35684 9.03172 5.18553 -1.31496 -33.3639 42.0033 1.90021 -43.2639 0.753631 -84.6163 -8.40393 5.19385 0.03873 9.51086 4.19343 -0.0 0.0 -0.0 9.91472 22.7676 -18.9888 -22.7558 15.2561 -67.179 0.439792 12.2906 -0.0473522 39.7326 0.335429 4.96419 0.0388978 -13.8077 -5.91402 0.0 0.0 0.0 -1.86433 -5.99952 1.22172 5.74583 -0.278884 -0.83701 -0.521669 25.4755 0.0799454 -2.56406 0.0 0.0 -0.0 0.0 -0.0 34.8212 8.73162 -6.84561 -37.5874 0.320455 -5.65755 5.58962 -23.0846 0.834009 -12.8777 0.0 0.0 0.0 0.0 0.0 
1432.99 758.269 -1482.09 -6.29218 74.3733 7.25883 0.455242 -0.129718 1.85217 0.457117 -0.247293 1.84017 0.449585 -0.615032 1.75192 0.445455 -0.33068 1.82703 -8.47487 10.7716 -3.55089 -8.50535 22.6238 -1.05045 -0.0 0.0 -0.0 2.41474 8.53689 5.25529 -0.0256069 -33.9418 41.7507 1.98039 -44.4464 0.809187 -84.3026 -8.36464 5.20118 -0.2323 10.0935 2.69079 -0.0 0.0 -0.0 9.7034 21.3438 -18.6366 -24.3161 14.7596 -67.9556 0.399805 11.2028 -0.0392111 39.1137 0.303966 4.89155 -0.216501 -17.0375 -5.60822 0.0 0.0 0.0 -2.71582 -4.90013 2.24937 3.99648 -0.185085 -0.585134 1.12689 24.8442 -0.1715 -2.18008 0.0 0.0 -0.0 0.0 -0.0 35.242 8.10293 -6.59651 -31.9387 0.035061 -4.83842 2.05645 -21.922 0.30804 -14.3939 0.0 0.0 0.0 0.0 0.0 
1419.01 755.539 -1483.16 -8.01554 75.2399 8.58364 0.596899 -0.234062 1.93473 0.598911 -0.356677 1.91592 0.587276 -0.733225 1.80568 0.582994 -0.438904 1.89878 -9.34754 10.1709 -3.09558 -9.42554 21.2129 -0.570359 -0.0 0.0 -0.0 2.45553 8.26584 5.30992 1.35221 -34.4906 41.4981 2.13839 -46.6435 0.921987 -84.0819 -8.33698 5.20621 -0.507362 11.841 1.66667 -0.0 0.0 -0.0 9.47315 20.3829 -18.1981 -25.6724 14.4046 -68.4987 0.432201 12.0848 -0.0457497 38.798 0.288223 4.85437 -0.393962 -19.2913 -5.4313 0.0 0.0 0.0 -2.57644 -4.13457 2.77518 3.71517 -0.170723 -0.544374 4.09953 23.7361 -0.616 -1.70313 0.0 0.0 -0.0 0.0 -0.0 34.1151 7.88289 -6.13579 -26.0063 -0.1762 -3.9529 -0.43773 -17.5891 -0.064952 -15.4625 0.0 0.0 0.0 0.0 0.0 
1400.66 751.966 -1482.54 -4.97874 76.0277 5.29478 0.538778 -0.298175 2.05293 0.541021 -0.428177 2.02981 0.526156 -0.828184 1.90204 0.52148 -0.517463 2.00892 -10.0433 9.29547 -3.45938 -10.1308 19.8283 -1.01966 -0.0 0.0 -0.0 2.48347 8.01645 5.34351 2.42097 -34.3302 41.2408 2.23736 -47.9347 0.99471 -83.9274 -8.31759 5.20967 -0.768386 13.3843 0.678008 -0.0 0.0 -0.0 8.98358 18.7437 -17.2289 -26.9389 14.818 -68.743 0.455856 12.7252 -0.0508312 38.8973 0.293155 4.86608 -0.423833 -20.5157 -5.74262 0.0 0.0 0.0 -4.02122 -3.60572 3.42998 2.24262 -0.0988257 -0.32991 8.82242 22.6027 -1.30124 -0.936568 0.0 0.0 -0.0 0.0 -0.0 33.6807 7.29043 -5.62941 -20.2019 -0.293183 -3.07025 -4.87383 -14.6946 -0.724783 -17.1162 0.0 0.0 0.0 0.0 0.0 
1383.9 737.536 -1481.56 -2.97145 75.2396 2.82903 0.644679 -0.14933 2.17705 0.64727 -0.287525 2.16314 0.636878 -0.713235 2.06236 0.631142 -0.378652 2.14907 -11.0431 8.17726 -3.49622 -11.1411 17.7511 -1.1843 -0.0 0.0 -0.0 2.45145 7.62678 5.26165 4.00983 -34.5018 40.9302 2.31182 -48.8654 1.05039 -83.5865 -8.27478 5.21711 -1.02867 15.3655 -0.0812243 -0.0 0.0 -0.0 8.00606 15.8156 -15.2655 -27.8677 15.0977 -68.9032 0.559259 15.4851 -0.0760381 38.9701 0.29678 4.87465 -0.321673 -20.6328 -6.39588 0.0 0.0 0.0 -5.37911 -4.7033 3.49522 -0.389195 0.0158301 0.0576282 14.2391 20.033 -2.04032 0.20648 -0.0 -0.0 -0.0 0.0 -0.0 32.9978 6.64302 -5.66386 -10.0455 -0.281484 -1.51399 -11.8916 -10.2998 -1.77771 -18.7635 0.0 0.0 0.0 0.0 0.0 
1369.04 742.188 -1483.54 -3.152 74.622 2.87345 0.688222 -0.0337626 2.26486 0.691058 -0.177776 2.25813 0.684651 -0.622775 2.17786 0.678134 -0.271098 2.24884 -11.8394 7.27873 -4.17676 -11.9278 16.4857 -1.97227 -0.0 0.0 -0.0 2.50215 7.31563 5.33203 4.70582 -34.4958 40.9575 2.40213 -49.9497 1.11898 -83.355 -8.2457 5.22201 -1.32667 17.3402 -1.02744 -0.0 0.0 -0.0 7.45114 13.708 -14.1787 -28.5025 15.3156 -69.1423 0.632995 17.4098 -0.0969182 39.3888 0.317854 4.92388 -0.252965 -20.7625 -6.85483 0.0 0.0 0.0 -4.7303 -5.51383 4.02223 -2.56146 0.0969576 0.381111 17.7873 16.1559 -2.48217 0.99827 -0.0 -0.0 -0.0 0.0 -0.0 30.8492 6.38075 -7.3127 -2.11398 -0.081251 -0.314232 -14.4204 -6.72763 -2.1618 -19.6513 0.0 0.0 0.0 0.0 0.0 
1354.28 745.533 -1486.43 -2.69811 73.7263 2.31009 0.697579 0.0804559 2.27255 0.70045 -0.0642771 2.27306 0.698613 -0.513886 2.21517 0.691799 -0.157686 2.2685 -12.4358 6.65128 -4.6859 -12.5132 15.6051 -2.55973 -0.0 0.0 -0.0 2.53554 7.25714 5.38801 4.95775 -34.425 41.0592 2.47016 -50.7353 1.17135 -83.192 -8.22519 5.2254 -1.54459 18.7248 -1.71099 -0.0 0.0 -0.0 7.22935 12.2031 -13.7778 -28.5126 15.5368 -69.395 0.68702 18.795 -0.113706 39.6929 0.333384 4.95953 -0.205192 -20.8508 -7.17292 0.0 0.0 0.0 -5.61715 -6.095 4.35946 -4.68933 0.16447 0.700678 20.2176 13.4324 -2.7745 1.58457 -0.0 -0.0 -0.0 0.0 -0.0 29.5625 6.25977 -7.83073 4.24051 0.197707 0.620438 -16.1618 -4.2383 -2.43225 -20.2727 0.0 0.0 0.0 0.0 0.0 
1339.19 741.199 -1489.5 -0.816786 73.2318 0.0261392 0.581288 0.160654 2.35808 0.584382 0.0103199 2.36352 0.585743 -0.463247 2.31773 0.578258 -0.0914979 2.36177 -12.9293 6.20388 -5.07705 -12.9975 14.9821 -3.00198 -0.0 0.0 -0.0 2.55151 7.22979 5.41484 5.03427 -34.3533 41.1012 2.52116 -51.3076 1.211 -83.0791 -8.21099 5.22771 -1.70038 19.7054 -2.18495 -0.0 0.0 -0.0 7.07144 11.1169 -13.4912 -28.5631 15.6634 -69.5651 0.711538 19.4163 -0.121731 39.9043 0.344292 4.98427 -0.179137 -20.9686 -7.37311 0.0 0.0 0.0 -6.34901 -6.51614 4.6229 -6.18918 0.204899 0.927297 21.8974 11.4431 -2.97223 1.99393 -0.0 -0.0 -0.0 0.0 -0.0 28.8326 6.16934 -8.25022 8.66733 0.452589 1.25103 -17.3562 -2.48542 -2.62157 -20.6743 0.0 0.0 0.0 0.0 0.0 
1322.99 738.891 -1493.18 2.06076 73.0791 -2.91788 0.439968 0.211356 2.39777 0.443165 0.058396 2.40636 0.446752 -0.430443 2.36829 0.438928 -0.0511267 2.40652 -13.2945 5.89446 -5.3543 -13.3553 14.5484 -3.3144 -0.0 0.0 -0.0 2.58317 7.2079 5.47014 5.10317 -34.3224 41.1145 2.56071 -51.7416 1.24196 -82.9976 -8.20074 5.22936 -1.81175 20.4056 -2.5141 -0.0 0.0 -0.0 6.96014 10.3107 -13.2901 -28.6754 15.8353 -70.0081 0.727836 19.8267 -0.127204 40.0532 0.352034 5.00168 -0.167542 -21.1551 -7.51362 0.0 0.0 0.0 -7.31286 -6.81972 4.97957 -7.24025 0.229687 1.08669 23.0663 10.0473 -3.10832 2.28329 -0.0 -0.0 -0.0 0.0 -0.0 28.4477 6.10367 -8.58353 11.7624 0.659464 1.67958 -18.1903 -1.25491 -2.7559 -20.9542 0.0 0.0 0.0 0.0 0.0 
1301.71 730.197 -1495.82 3.2618 72.9359 -4.36502 0.356143 0.39478 2.46871 0.359503 0.236939 2.48881 0.371267 -0.275443 2.48484 0.362671 0.120322 2.49716 -13.5246 5.89561 -4.88241 -13.5992 14.2462 -2.83273 -0.0 0.0 -0.0 2.65591 7.64041 5.62663 5.3389 -34.4427 41.4145 2.81741 -54.368 1.44717 -83.1669 -8.22204 5.22591 -1.94192 21.0375 -2.97816 -0.0 0.0 -0.0 6.88539 9.72608 -13.1565 -29.0886 16.0135 -70.5463 0.666932 18.2825 -0.107319 40.2707 0.363417 5.02706 -0.214992 -22.0896 -7.59233 0.0 0.0 0.0 -9.02952 -6.66118 5.61534 -8.079 0.247366 1.21418 24.1784 9.05006 -3.23755 3.10512 -0.0 -0.0 -0.0 0.0 -0.0 28.3998 6.02217 -8.89413 10.2233 0.553687 1.46785 -18.8203 -1.4055 -2.8512 -20.4942 0.0 0.0 0.0 0.0 0.0 
1278.5 722.947 -1499.67 5.14957 73.3746 -6.87557 0.294802 0.496819 2.57496 0.29843 0.332018 2.60134 0.315264 -0.207783 2.61418 0.305787 0.207542 2.6142 -13.6205 5.92317 -4.44813 -13.7048 14.0265 -2.39709 -0.0 0.0 -0.0 2.80491 7.66887 5.89376 5.38165 -34.7733 42.1129 3.01762 -56.2072 1.61177 -83.2804 -8.23631 5.22357 -2.03163 21.4525 -3.30258 -0.0 0.0 -0.0 6.87522 9.51441 -13.1437 -29.3059 16.2708 -70.8682 0.626064 17.2305 -0.0948547 40.4238 0.371489 5.0449 -0.248374 -22.7452 -7.64843 0.0 0.0 0.0 -10.7513 -6.52094 6.55838 -8.71614 0.259547 1.31119 24.875 8.36189 -3.31765 3.6565 -0.0 -0.0 -0.0 0.0 -0.0 28.4481 5.80111 -9.45145 9.14504 0.482998 1.31788 -19.2537 -1.55291 -2.91644 -20.1683 0.0 0.0 0.0 0.0 0.0 
1259.18 721.628 -1503.14 4.00527 72.9568 -5.85585 0.243853 0.567246 2.59086 0.247498 0.401292 2.62167 0.267769 -0.146269 2.64815 0.258087 0.273644 2.63804 -13.4745 5.92328 -4.16436 -13.559 13.8573 -2.14447 -0.0 0.0 -0.0 2.79551 7.83178 5.88632 5.08891 -34.8931 42.7092 3.1584 -57.4029 1.72958 -83.3545 -8.24562 5.22203 -2.09371 21.7425 -3.52326 -0.0 0.0 -0.0 7.0234 9.32198 -13.4637 -28.9872 16.5526 -71.1622 0.616091 16.972 -0.0919222 40.5248 0.376842 5.05666 -0.268231 -23.2317 -7.71935 0.0 0.0 0.0 -12.0748 -6.40109 6.91272 -9.17433 0.26764 1.38104 25.367 7.98909 -3.37409 4.07308 -0.0 -0.0 -0.0 0.0 -0.0 28.4566 5.54116 -9.38581 8.26868 0.427641 1.19506 -19.5517 -1.68599 -2.96104 -19.9404 0.0 0.0 0.0 0.0 0.0 
1244.83 716.075 -1507.73 5.95936 72.1936 -7.8746 0.194367 0.65515 2.62581 0.198071 0.486796 2.66214 0.222793 -0.0729463 2.70527 0.212757 0.355059 2.68287 -11.9203 6.37274 -3.46871 -11.9915 14.3128 -1.53963 -0.0 0.0 -0.0 2.77058 8.37326 5.8729 4.38891 -34.8238 43.2384 3.28075 -58.3822 1.83323 -83.4069 -8.25222 5.22093 -2.13417 21.9052 -3.67901 -0.0 0.0 -0.0 7.18286 9.2472 -13.803 -28.231 16.8223 -71.4114 0.616506 16.9827 -0.0920432 40.5909 0.380355 5.06435 -0.292788 -24.189 -7.94357 0.0 0.0 0.0 -13.2022 -6.31778 6.63846 -9.44273 0.272121 1.42198 25.7815 8.04405 -3.42186 4.35669 -0.0 -0.0 -0.0 0.0 -0.0 28.8722 5.68868 -8.27444 7.64409 0.389342 1.10702 -20.58 -1.71553 -3.11754 -19.7956 0.0 0.0 0.0 0.0 0.0 
